<?xml version="1.0" encoding="UTF-8" standalone="no"?>
<!-- Created with Inkscape (http://www.inkscape.org/) -->

<svg
   xmlns:dc="http://purl.org/dc/elements/1.1/"
   xmlns:cc="http://creativecommons.org/ns#"
   xmlns:rdf="http://www.w3.org/1999/02/22-rdf-syntax-ns#"
   xmlns:svg="http://www.w3.org/2000/svg"
   xmlns="http://www.w3.org/2000/svg"
   xmlns:sodipodi="http://sodipodi.sourceforge.net/DTD/sodipodi-0.dtd"
   xmlns:inkscape="http://www.inkscape.org/namespaces/inkscape"
   version="1.1"
   id="svg4518"
   width="284"
   height="206"
   viewBox="0 0 284 206"
   sodipodi:docname="logo.svg"
   inkscape:version="0.92.4 (5da689c313, 2019-01-14)">
  <metadata
     id="metadata4524">
    <rdf:RDF>
      <cc:Work
         rdf:about="">
        <dc:format>image/svg+xml</dc:format>
        <dc:type
           rdf:resource="http://purl.org/dc/dcmitype/StillImage" />
        <dc:title></dc:title>
      </cc:Work>
    </rdf:RDF>
  </metadata>
  <defs
     id="defs4522" />
  <sodipodi:namedview
     pagecolor="#ffffff"
     bordercolor="#666666"
     borderopacity="1"
     objecttolerance="10"
     gridtolerance="10"
     guidetolerance="10"
     inkscape:pageopacity="0"
     inkscape:pageshadow="2"
     inkscape:window-width="1366"
     inkscape:window-height="705"
     id="namedview4520"
     showgrid="false"
     inkscape:zoom="1.8398507"
     inkscape:cx="105.46088"
     inkscape:cy="100.97218"
     inkscape:window-x="-8"
     inkscape:window-y="-8"
     inkscape:window-maximized="1"
     inkscape:current-layer="svg4518" />
  <g
     id="g4567"
     transform="matrix(1.9447575,0,0,1.9447575,-131.6937,-16.467976)"
     inkscape:export-xdpi="300"
     inkscape:export-ydpi="300">
    <path
       inkscape:connector-curvature="0"
       id="path4528"
       d="m 130.09515,76.097015 -0.38433,-40.354478 -13.64366,13.835821 0.19217,20.177239 3.26679,1.729478 -0.19216,-20.945896 6.91791,-7.302239 -0.38433,30.746269 z"
       style="fill:#000000;stroke:#000000;stroke-width:1px;stroke-linecap:butt;stroke-linejoin:miter;stroke-opacity:1" />
    <path
       sodipodi:nodetypes="ccccccccc"
       inkscape:connector-curvature="0"
       id="path4530"
       d="m 166.22202,68.602612 -0.5765,-32.091418 -12.68283,12.875 V 77.520522 L 155.46082,74.445895 155.07649,51.5 l 7.87873,-8.070896 0.38433,27.479478 z"
       style="fill:#000000;stroke:#000000;stroke-width:1px;stroke-linecap:butt;stroke-linejoin:miter;stroke-opacity:1" />
    <path
       inkscape:connector-curvature="0"
       id="path4532"
       d="M 147.96934,78.787313 V 11.722015 l -13.25933,13.067164 0.19217,53.998134 3.65112,3.074627 -0.5765,-55.919776 7.11008,-7.494403 0.19216,63.029851 z"
       style="fill:#000000;stroke:#000000;stroke-width:1px;stroke-linecap:butt;stroke-linejoin:miter;stroke-opacity:1" />
  </g>
  <g
     id="g4562"
     transform="matrix(1.9447575,0,0,1.9447575,-131.42424,-16.467976)"
     inkscape:export-xdpi="300"
     inkscape:export-ydpi="300">
    <path
       sodipodi:nodetypes="ccccccccccc"
       inkscape:connector-curvature="0"
       id="path4534"
       d="m 114.52985,98.484142 c 8.27697,-0.316633 12.39419,5.308998 15.08489,9.608208 -17.50676,-4.06219 -21.52666,-18.817582 -19.02425,-30.554104 5.64717,-1.212181 28.42054,5.804749 26.61473,26.134324 -3.52772,-3.51205 -8.56614,-9.300213 -6.24533,-17.967346 l -1.82556,-1.537314 c -5.80497,12.950889 9.70429,23.44403 9.70429,23.44403 5.45686,-28.289376 -24.64671,-33.746781 -29.88153,-33.244403 -6.45913,19.878602 8.10686,37.549443 24.30877,36.895523 0.0862,-0.74918 -0.69168,-14.139565 -20.70228,-15.785605 z"
       style="fill:#000000;stroke:#000000;stroke-width:1px;stroke-linecap:butt;stroke-linejoin:miter;stroke-opacity:1" />
    <path
       sodipodi:nodetypes="ccccccccccc"
       inkscape:connector-curvature="0"
       id="path4534-7"
       d="m 167.4846,98.484142 c -8.27697,-0.316633 -12.39419,5.308998 -15.08489,9.608208 17.50676,-4.06219 21.52666,-18.817582 19.02425,-30.554104 -5.64717,-1.212181 -28.42054,5.804749 -26.61473,26.134324 3.52772,-3.51205 8.56614,-9.300213 6.24533,-17.967346 l 1.82556,-1.537314 c 5.80497,12.950889 -9.70429,23.44403 -9.70429,23.44403 -5.45686,-28.289376 24.64671,-33.746781 29.88153,-33.244403 6.45913,19.878602 -8.10686,37.549443 -24.30877,36.895523 -0.0862,-0.74918 0.69168,-14.139565 20.70228,-15.785605 z"
       style="fill:#000000;stroke:#000000;stroke-width:1px;stroke-linecap:butt;stroke-linejoin:miter;stroke-opacity:1" />
  </g>
</svg>
